<svg width="48" height="49" viewBox="0 0 48 49" fill="none" xmlns="http://www.w3.org/2000/svg">
<rect y="0.5" width="48" height="48" rx="17" fill="white"/>
<rect x="0.5" y="1" width="47" height="47" rx="16.5" stroke="black" stroke-opacity="0.13"/>
<path d="M32.75 31.5C32.75 31.5 34 31.5 34 30.25C34 29 32.75 25.25 27.75 25.25C22.75 25.25 21.5 29 21.5 30.25C21.5 31.5 22.75 31.5 22.75 31.5H32.75ZM22.7775 30.25C22.7683 30.2487 22.7591 30.2471 22.75 30.245C22.7513 29.915 22.9588 28.9575 23.7 28.095C24.39 27.2863 25.6025 26.5 27.75 26.5C29.8963 26.5 31.1087 27.2875 31.8 28.095C32.5412 28.9575 32.7475 29.9163 32.75 30.245L32.74 30.2475C32.7342 30.2485 32.7284 30.2493 32.7225 30.25H22.7775V30.25ZM27.75 22.75C28.413 22.75 29.0489 22.4866 29.5178 22.0178C29.9866 21.5489 30.25 20.913 30.25 20.25C30.25 19.587 29.9866 18.9511 29.5178 18.4822C29.0489 18.0134 28.413 17.75 27.75 17.75C27.087 17.75 26.4511 18.0134 25.9822 18.4822C25.5134 18.9511 25.25 19.587 25.25 20.25C25.25 20.913 25.5134 21.5489 25.9822 22.0178C26.4511 22.4866 27.087 22.75 27.75 22.75ZM31.5 20.25C31.5 20.7425 31.403 21.2301 31.2145 21.6851C31.0261 22.14 30.7499 22.5534 30.4017 22.9017C30.0534 23.2499 29.64 23.5261 29.1851 23.7145C28.7301 23.903 28.2425 24 27.75 24C27.2575 24 26.7699 23.903 26.3149 23.7145C25.86 23.5261 25.4466 23.2499 25.0983 22.9017C24.7501 22.5534 24.4739 22.14 24.2855 21.6851C24.097 21.2301 24 20.7425 24 20.25C24 19.2554 24.3951 18.3016 25.0983 17.5983C25.8016 16.8951 26.7554 16.5 27.75 16.5C28.7446 16.5 29.6984 16.8951 30.4017 17.5983C31.1049 18.3016 31.5 19.2554 31.5 20.25V20.25ZM22.67 25.6C22.17 25.4425 21.6545 25.339 21.1325 25.2912C20.8392 25.2634 20.5447 25.2496 20.25 25.25C15.25 25.25 14 29 14 30.25C14 31.0837 14.4163 31.5 15.25 31.5H20.52C20.3347 31.1098 20.2423 30.6819 20.25 30.25C20.25 28.9875 20.7213 27.6975 21.6125 26.62C21.9163 26.2525 22.27 25.9087 22.67 25.6ZM20.15 26.5C19.4102 27.6116 19.0106 28.9148 19 30.25H15.25C15.25 29.925 15.455 28.9625 16.2 28.095C16.8813 27.3 18.065 26.525 20.15 26.5013V26.5ZM15.875 20.875C15.875 19.8804 16.2701 18.9266 16.9733 18.2233C17.6766 17.5201 18.6304 17.125 19.625 17.125C20.6196 17.125 21.5734 17.5201 22.2767 18.2233C22.9799 18.9266 23.375 19.8804 23.375 20.875C23.375 21.8696 22.9799 22.8234 22.2767 23.5267C21.5734 24.2299 20.6196 24.625 19.625 24.625C18.6304 24.625 17.6766 24.2299 16.9733 23.5267C16.2701 22.8234 15.875 21.8696 15.875 20.875V20.875ZM19.625 18.375C18.962 18.375 18.3261 18.6384 17.8572 19.1072C17.3884 19.5761 17.125 20.212 17.125 20.875C17.125 21.538 17.3884 22.1739 17.8572 22.6428C18.3261 23.1116 18.962 23.375 19.625 23.375C20.288 23.375 20.9239 23.1116 21.3928 22.6428C21.8616 22.1739 22.125 21.538 22.125 20.875C22.125 20.212 21.8616 19.5761 21.3928 19.1072C20.9239 18.6384 20.288 18.375 19.625 18.375Z" fill="#A80000"/>
</svg>
