<svg width="48" height="49" viewBox="0 0 48 49" fill="none" xmlns="http://www.w3.org/2000/svg">
<rect y="0.5" width="48" height="48" rx="17" fill="white"/>
<rect x="0.5" y="1" width="47" height="47" rx="16.5" stroke="black" stroke-opacity="0.13"/>
<path d="M14 16.5C14 16.1685 14.1317 15.8505 14.3661 15.6161C14.6005 15.3817 14.9185 15.25 15.25 15.25H32.75C33.0815 15.25 33.3995 15.3817 33.6339 15.6161C33.8683 15.8505 34 16.1685 34 16.5V19C34 19.3315 33.8683 19.6495 33.6339 19.8839C33.3995 20.1183 33.0815 20.25 32.75 20.25V29.625C32.75 30.4538 32.4208 31.2487 31.8347 31.8347C31.2487 32.4208 30.4538 32.75 29.625 32.75H18.375C17.5462 32.75 16.7513 32.4208 16.1653 31.8347C15.5792 31.2487 15.25 30.4538 15.25 29.625V20.25C14.9185 20.25 14.6005 20.1183 14.3661 19.8839C14.1317 19.6495 14 19.3315 14 19V16.5ZM16.5 20.25V29.625C16.5 30.1223 16.6975 30.5992 17.0492 30.9508C17.4008 31.3025 17.8777 31.5 18.375 31.5H29.625C30.1223 31.5 30.5992 31.3025 30.9508 30.9508C31.3025 30.5992 31.5 30.1223 31.5 29.625V20.25H16.5ZM32.75 16.5H15.25V19H32.75V16.5ZM20.25 23.375C20.25 23.2092 20.3158 23.0503 20.4331 22.9331C20.5503 22.8158 20.7092 22.75 20.875 22.75H27.125C27.2908 22.75 27.4497 22.8158 27.5669 22.9331C27.6842 23.0503 27.75 23.2092 27.75 23.375C27.75 23.5408 27.6842 23.6997 27.5669 23.8169C27.4497 23.9342 27.2908 24 27.125 24H20.875C20.7092 24 20.5503 23.9342 20.4331 23.8169C20.3158 23.6997 20.25 23.5408 20.25 23.375Z" fill="#A80000"/>
</svg>
