<svg width="60" height="61" viewBox="0 0 60 61" fill="none" xmlns="http://www.w3.org/2000/svg">
<path d="M60 30.8721C60 47.4406 46.5685 60.8721 30 60.8721C13.4315 60.8721 0 47.4406 0 30.8721C0 14.3035 13.4315 0.87207 30 0.87207C46.5685 0.87207 60 14.3035 60 30.8721Z" fill="#A80000"/>
<path d="M29.9996 12.8721C20.0588 12.8721 12 20.9606 12 30.9382C12 39.4105 17.8117 46.5199 25.6516 48.4724V36.4592H21.9401V30.9382H25.6516V28.5592C25.6516 22.4103 28.4243 19.5601 34.4391 19.5601C35.5795 19.5601 37.5473 19.7849 38.3522 20.0089V25.0132C37.9274 24.9684 37.1894 24.946 36.2729 24.946C33.3217 24.946 32.1812 26.0683 32.1812 28.9856V30.9382H38.0606L37.0505 36.4592H32.1812V48.8721C41.0939 47.7917 48 40.175 48 30.9382C47.9993 20.9606 39.9405 12.8721 29.9996 12.8721Z" fill="white"/>
</svg>
