<svg width="60" height="61" viewBox="0 0 60 61" fill="none" xmlns="http://www.w3.org/2000/svg">
<circle cx="30" cy="30.8721" r="30" fill="#A80000"/>
<g clip-path="url(#clip0_188_1185)">
<path d="M30 16.1135C34.8094 16.1135 35.3789 16.1346 37.2703 16.2189C39.0281 16.2963 39.9773 16.5916 40.6102 16.8377C41.4469 17.1611 42.0516 17.5549 42.6773 18.1807C43.3102 18.8135 43.6969 19.4111 44.0203 20.2479C44.2664 20.8807 44.5617 21.8369 44.6391 23.5877C44.7234 25.4861 44.7445 26.0557 44.7445 30.858C44.7445 35.6674 44.7234 36.2369 44.6391 38.1283C44.5617 39.8861 44.2664 40.8354 44.0203 41.4682C43.6969 42.3049 43.3031 42.9096 42.6773 43.5354C42.0445 44.1682 41.4469 44.5549 40.6102 44.8783C39.9773 45.1244 39.0211 45.4197 37.2703 45.4971C35.3719 45.5814 34.8023 45.6025 30 45.6025C25.1906 45.6025 24.6211 45.5814 22.7297 45.4971C20.9719 45.4197 20.0227 45.1244 19.3898 44.8783C18.5531 44.5549 17.9484 44.1611 17.3227 43.5354C16.6898 42.9025 16.3031 42.3049 15.9797 41.4682C15.7336 40.8354 15.4383 39.8791 15.3609 38.1283C15.2766 36.2299 15.2555 35.6604 15.2555 30.858C15.2555 26.0486 15.2766 25.4791 15.3609 23.5877C15.4383 21.8299 15.7336 20.8807 15.9797 20.2479C16.3031 19.4111 16.6969 18.8064 17.3227 18.1807C17.9555 17.5479 18.5531 17.1611 19.3898 16.8377C20.0227 16.5916 20.9789 16.2963 22.7297 16.2189C24.6211 16.1346 25.1906 16.1135 30 16.1135ZM30 12.8721C25.1133 12.8721 24.5016 12.8932 22.582 12.9775C20.6695 13.0619 19.3547 13.3713 18.2156 13.8143C17.0273 14.2783 16.0219 14.89 15.0234 15.8955C14.018 16.8939 13.4062 17.8994 12.9422 19.0807C12.4992 20.2268 12.1898 21.5346 12.1055 23.4471C12.0211 25.3736 12 25.9854 12 30.8721C12 35.7588 12.0211 36.3705 12.1055 38.29C12.1898 40.2025 12.4992 41.5174 12.9422 42.6564C13.4062 43.8447 14.018 44.8502 15.0234 45.8486C16.0219 46.8471 17.0273 47.4658 18.2086 47.9228C19.3547 48.3658 20.6625 48.6752 22.575 48.7596C24.4945 48.8439 25.1062 48.865 29.993 48.865C34.8797 48.865 35.4914 48.8439 37.4109 48.7596C39.3234 48.6752 40.6383 48.3658 41.7773 47.9228C42.9586 47.4658 43.9641 46.8471 44.9625 45.8486C45.9609 44.8502 46.5797 43.8447 47.0367 42.6635C47.4797 41.5174 47.7891 40.2096 47.8734 38.2971C47.9578 36.3775 47.9789 35.7658 47.9789 30.8791C47.9789 25.9924 47.9578 25.3807 47.8734 23.4611C47.7891 21.5486 47.4797 20.2338 47.0367 19.0947C46.5938 17.8994 45.982 16.8939 44.9766 15.8955C43.9781 14.8971 42.9727 14.2783 41.7914 13.8213C40.6453 13.3783 39.3375 13.0689 37.425 12.9846C35.4984 12.8932 34.8867 12.8721 30 12.8721Z" fill="white"/>
<path d="M30 21.626C24.8953 21.626 20.7539 25.7674 20.7539 30.8721C20.7539 35.9768 24.8953 40.1182 30 40.1182C35.1047 40.1182 39.2461 35.9768 39.2461 30.8721C39.2461 25.7674 35.1047 21.626 30 21.626ZM30 36.8697C26.6883 36.8697 24.0023 34.1838 24.0023 30.8721C24.0023 27.5604 26.6883 24.8744 30 24.8744C33.3117 24.8744 35.9977 27.5604 35.9977 30.8721C35.9977 34.1838 33.3117 36.8697 30 36.8697Z" fill="white"/>
<path d="M41.7703 21.2602C41.7703 22.4555 40.8 23.4188 39.6117 23.4188C38.4164 23.4188 37.4531 22.4484 37.4531 21.2602C37.4531 20.0648 38.4234 19.1016 39.6117 19.1016C40.8 19.1016 41.7703 20.0719 41.7703 21.2602Z" fill="white"/>
</g>
<defs>
<clipPath id="clip0_188_1185">
<rect width="36" height="36" fill="white" transform="translate(12 12.8721)"/>
</clipPath>
</defs>
</svg>
