<svg width="65" height="66" viewBox="0 0 65 66" fill="none" xmlns="http://www.w3.org/2000/svg">
<rect y="0.234375" width="65" height="65" rx="10" fill="#364B5D"/>
<path fill-rule="evenodd" clip-rule="evenodd" d="M32.9923 17.542C29.7375 17.542 26.6159 18.835 24.3144 21.1365C22.0128 23.4381 20.7198 26.5596 20.7198 29.8145C20.7198 34.5758 23.8016 39.1093 27.0521 42.5404C28.6597 44.2372 30.2701 45.6243 31.4797 46.5875C32.0838 47.0685 32.5861 47.4424 32.9357 47.6949C32.9551 47.7089 32.9739 47.7225 32.9923 47.7357C33.0107 47.7225 33.0295 47.7089 33.0489 47.6949C33.3985 47.4424 33.9008 47.0685 34.5049 46.5875C35.7145 45.6243 37.325 44.2372 38.9325 42.5404C42.183 39.1093 45.2648 34.5758 45.2648 29.8145C45.2648 26.5596 43.9718 23.4381 41.6702 21.1365C39.3687 18.835 36.2472 17.542 32.9923 17.542ZM32.9923 48.7948C32.511 49.5168 32.5107 49.5166 32.5104 49.5164L32.5071 49.5141L32.4984 49.5083L32.4671 49.4871C32.4401 49.4688 32.401 49.4421 32.3507 49.4072C32.25 49.3375 32.1042 49.2351 31.9196 49.1018C31.5507 48.8354 31.0264 48.445 30.3986 47.9451C29.1444 46.9464 27.4698 45.5047 25.7923 43.7339C22.4727 40.23 18.9844 35.2733 18.9844 29.8145C18.9844 26.0993 20.4602 22.5364 23.0872 19.9094C25.7142 17.2824 29.2772 15.8065 32.9923 15.8065C36.7074 15.8065 40.2704 17.2824 42.8974 19.9094C45.5244 22.5364 47.0002 26.0993 47.0002 29.8145C47.0002 35.2733 43.5119 40.23 40.1923 43.7339C38.5148 45.5047 36.8402 46.9464 35.586 47.9451C34.9582 48.445 34.434 48.8354 34.065 49.1018C33.8804 49.2351 33.7346 49.3375 33.6339 49.4072C33.5836 49.4421 33.5445 49.4688 33.5176 49.4871L33.4862 49.5083L33.4776 49.5141L33.475 49.5158C33.4747 49.516 33.4736 49.5168 32.9923 48.7948ZM32.9923 48.7948L33.4736 49.5168C33.1822 49.7111 32.8019 49.7107 32.5104 49.5164L32.9923 48.7948Z" fill="white"/>
<path fill-rule="evenodd" clip-rule="evenodd" d="M32.9924 26.3024C31.0526 26.3024 29.4801 27.875 29.4801 29.8148C29.4801 31.7546 31.0526 33.3271 32.9924 33.3271C34.9322 33.3271 36.5048 31.7546 36.5048 29.8148C36.5048 27.875 34.9322 26.3024 32.9924 26.3024ZM27.7446 29.8148C27.7446 26.9165 30.0942 24.567 32.9924 24.567C35.8907 24.567 38.2402 26.9165 38.2402 29.8148C38.2402 32.713 35.8907 35.0626 32.9924 35.0626C30.0942 35.0626 27.7446 32.713 27.7446 29.8148Z" fill="white"/>
</svg>
