<svg width="37" height="37" viewBox="0 0 37 37" fill="none" xmlns="http://www.w3.org/2000/svg">
<rect width="37" height="37" rx="18.5" fill="#364B5D"/>
<path d="M16.4986 20.274L16.4266 17.34H17.1106C17.7586 17.34 18.3526 17.28 18.8926 17.16C19.4446 17.04 19.8826 16.806 20.2066 16.458C20.5426 16.11 20.7106 15.594 20.7106 14.91C20.7106 14.25 20.5066 13.734 20.0986 13.362C19.6906 12.978 19.1566 12.786 18.4966 12.786C17.8126 12.786 17.2726 12.972 16.8766 13.344C16.4806 13.716 16.2826 14.22 16.2826 14.856H14.4826C14.4706 14.136 14.6266 13.5 14.9506 12.948C15.2866 12.396 15.7546 11.964 16.3546 11.652C16.9666 11.34 17.6806 11.184 18.4966 11.184C19.2886 11.184 19.9906 11.334 20.6026 11.634C21.2146 11.934 21.6886 12.366 22.0246 12.93C22.3726 13.482 22.5466 14.148 22.5466 14.928C22.5466 15.78 22.3606 16.482 21.9886 17.034C21.6166 17.574 21.1066 17.976 20.4586 18.24C19.8106 18.492 19.0666 18.618 18.2266 18.618L18.1726 20.274H16.4986ZM17.3446 24.108C16.9726 24.108 16.6726 23.994 16.4446 23.766C16.2166 23.526 16.1026 23.244 16.1026 22.92C16.1026 22.584 16.2166 22.302 16.4446 22.074C16.6726 21.834 16.9726 21.714 17.3446 21.714C17.6926 21.714 17.9806 21.834 18.2086 22.074C18.4486 22.302 18.5686 22.584 18.5686 22.92C18.5686 23.244 18.4486 23.526 18.2086 23.766C17.9806 23.994 17.6926 24.108 17.3446 24.108Z" fill="white"/>
</svg>
