<svg width="60" height="61" viewBox="0 0 60 61" fill="none" xmlns="http://www.w3.org/2000/svg">
<circle cx="30" cy="30.8721" r="30" fill="#A80000"/>
<path d="M47.6414 23.6723C47.6414 23.6723 47.2898 21.1902 46.207 20.1004C44.8359 18.666 43.3031 18.659 42.6 18.5746C37.5656 18.209 30.007 18.209 30.007 18.209H29.993C29.993 18.209 22.4344 18.209 17.4 18.5746C16.6969 18.659 15.1641 18.666 13.793 20.1004C12.7102 21.1902 12.3656 23.6723 12.3656 23.6723C12.3656 23.6723 12 26.5902 12 29.5012V32.2293C12 35.1402 12.3586 38.0582 12.3586 38.0582C12.3586 38.0582 12.7102 40.5402 13.7859 41.6301C15.157 43.0645 16.957 43.0152 17.7586 43.1699C20.6414 43.4441 30 43.5285 30 43.5285C30 43.5285 37.5656 43.5145 42.6 43.1559C43.3031 43.0715 44.8359 43.0645 46.207 41.6301C47.2898 40.5402 47.6414 38.0582 47.6414 38.0582C47.6414 38.0582 48 35.1473 48 32.2293V29.5012C48 26.5902 47.6414 23.6723 47.6414 23.6723ZM26.2805 35.541V25.423L36.0047 30.4996L26.2805 35.541Z" fill="white"/>
</svg>
